<svg xmlns="http://www.w3.org/2000/svg" version="1.0" width="64.000000pt" height="64.000000pt" viewBox="0 0 64.000000 64.000000" preserveAspectRatio="xMidYMid meet">

<g transform="translate(0.000000,64.000000) scale(0.100000,-0.100000)" fill="#000000" stroke="none">
<path d="M123 616 c-25 -22 -28 -31 -31 -105 -4 -75 -7 -84 -34 -111 l-30 -30 4 -124 c2 -105 6 -127 22 -145 11 -12 27 -21 37 -21 13 0 19 -9 21 -37 2 -31 7 -39 26 -41 32 -5 52 15 52 49 l0 29 130 0 130 0 0 -29 c0 -34 20 -54 52 -49 19 2 24 10 26 41 2 28 8 37 21 37 10 0 26 9 37 21 17 18 19 37 19 151 0 128 0 130 -26 152 -24 21 -27 31 -30 106 -4 75 -7 84 -32 106 -27 23 -33 24 -197 24 -164 0 -170 -1 -197 -24z m381 -22 c12 -11 16 -35 16 -88 0 -68 -2 -73 -29 -94 -16 -12 -32 -35 -36 -52 l-7 -30 -128 0 -128 0 -7 30 c-4 17 -20 40 -36 52 -27 21 -29 26 -29 94 0 106 -3 104 200 104 140 0 171 -3 184 -16z m-357 -206 c4 -7 10 -53 13 -103 l5 -90 155 0 155 0 5 90 c3 50 9 96 13 103 13 19 65 15 77 -7 5 -11 10 -70 10 -132 0 -160 19 -149 -261 -149 -194 0 -230 2 -243 16 -13 12 -16 39 -16 130 0 64 5 124 10 135 12 22 64 26 77 7z m303 -123 l0 -45 -130 0 -130 0 0 45 0 45 130 0 130 0 0 -45z m-290 -210 c0 -16 -6 -25 -15 -25 -15 0 -21 31 -8 43 13 14 23 6 23 -18z m340 0 c0 -14 -4 -25 -10 -25 -5 0 -10 11 -10 25 0 14 5 25 10 25 6 0 10 -11 10 -25z" fill="#000000"/>
</g>
</svg>